# xmcd
#
# Track frame offsets:
# 150
# 22100
# 33584
# 42424
# 51893
# 70043
# 84652
# 93329
# 105202
# 128053
# 140203
# 151565
# 157422
# 176942
#
# Disc length: 2477 seconds
#
# Revision: 0
# Processed by: cddbd v1.5.1PL0 Copyright (c) Steve Scherf et al.
# Submitted via: Audion 3.0.2 (http://www.panic.com/audion/)
#
DISCID=be09ab0e
DTITLE=Yasha Rassi - Shipper Receiver
DYEAR=1900
DGENRE=
TTITLE0=Packing tape
TTITLE1=night shift
TTITLE2=upc
TTITLE3=steel toe boots
TTITLE4=bubble wrap
TTITLE5=overtime
TTITLE6=shipper-recever
TTITLE7=docking plate
TTITLE8=refrshment
TTITLE9=pallet jack
TTITLE10=box cutter
TTITLE11=p.a system
TTITLE12=inventory
TTITLE13=price tag
EXTD=
EXTT0=
EXTT1=
EXTT2=
EXTT3=
EXTT4=
EXTT5=
EXTT6=
EXTT7=
EXTT8=
EXTT9=
EXTT10=
EXTT11=
EXTT12=
EXTT13=
PLAYORDER=
